{"accessors" : [{"bufferView" : 0, "byteOffset" : 0, "componentType" : 5123, "count" : 12168, "type" : "SCALAR", "max" : [11794], "min" : [0]}, {"bufferView" : 1, "byteOffset" : 0, "componentType" : 5126, "count" : 11795, "type" : "VEC3", "max" : [7, 6.999270439147949, 25], "min" : [-7, -6.999475955963135, 4.440892098500626E-15], "name" : "POSITION"}, {"bufferView" : 1, "byteOffset" : 12, "componentType" : 5126, "count" : 11795, "type" : "VEC3", "max" : [1.0000044107437134, 1.0000044107437134, 1.0000044107437134], "min" : [-1.0000044107437134, -1.0000044107437134, -1.0000044107437134], "name" : "NORMAL"}], "asset" : {"generator" : "Aspose.3D 23.1", "version" : "2.0"}, "buffers" : [{"uri" : "data:application/octet-stream;base64,", "byteLength" : 316376}], "bufferViews" : [{"buffer" : 0, "byteOffset" : 0, "byteLength" : 24336, "target" : 34963}, {"buffer" : 0, "byteOffset" : 24340, "byteLength" : 292032, "byteStride" : 24, "target" : 34962}], "meshes" : [{"primitives" : [{"attributes" : {"POSITION" : 1, "NORMAL" : 2}, "indices" : 0, "mode" : 4}], "name" : ""}], "nodes" : [{"mesh" : 0, "name" : ""}], "scene" : 0, "scenes" : [{"nodes" : [0]}]}